<svg width="512" height="512" fill="none" xmlns="http://www.w3.org/2000/svg">
  <style>
    path {
      fill: #1a1a1c;
    }

    @media (prefers-color-scheme: dark) {
      path {
        fill: #ffffff;
      }
    }
  </style>
  <path
    d="M218.538 97.204A226.131 226.131 0 0 0 392.44 370.123a166.697 166.697 0 0 1-119.623 50.839c-2.078 0-4.173.077-6.267 0a166.417 166.417 0 0 1-48.012-323.758ZM240.7 61c-.878.001-1.754.08-2.619.234A196.436 196.436 0 0 0 76.479 268.406 196.438 196.438 0 0 0 265.45 450.959c2.462.09 4.923 0 7.364 0a196.081 196.081 0 0 0 160.53-83.334 15.147 15.147 0 0 0 .909-15.129 15.146 15.146 0 0 0-12.659-8.336A196.203 196.203 0 0 1 254.338 81.7a15.218 15.218 0 0 0-6.734-18.754A15.22 15.22 0 0 0 240.7 61Z" />
</svg>
