<svg xmlns="http://www.w3.org/2000/svg" width="174" height="24" fill="none">
  <path fill="black" d="M9.721 2.29a13.827 13.827 0 0 0 10.634 16.688 10.193 10.193 0 0 1-7.315 3.109c-.127 0-.255.004-.383 0A10.175 10.175 0 0 1 9.72 2.29ZM11.076.077a.92.92 0 0 0-.16.014 12.011 12.011 0 0 0 1.674 23.83c.15.005.3 0 .45 0a11.99 11.99 0 0 0 9.816-5.096.926.926 0 0 0-.719-1.434A11.996 11.996 0 0 1 11.91 1.341a.932.932 0 0 0-.834-1.265ZM38.51 19.96c-1.04-.04-1.887-.293-2.54-.76-.64-.467-.96-1.127-.96-1.98 0-.787.34-1.387 1.02-1.8.68-.413 1.532-.607 2.56-.58.306 0 .612.013.92.04.32.027.633.06.94.1a59.184 59.184 0 0 0-.12-1.76 88.772 88.772 0 0 1-.1-2.02 51.076 51.076 0 0 1-.04-1.96V7.68c.013-.387.026-.727.04-1.02.013-.667-.02-1.133-.1-1.4-.08-.28-.227-.447-.44-.5a.71.71 0 0 0-.26-.04c-.094 0-.18.007-.26.02-.16-.12-.18-.253-.06-.4.386-.24.86-.34 1.42-.3.56.027 1.053.2 1.48.52.6.347.7.82.3 1.42a2.362 2.362 0 0 0-.36.9c-.054.333-.094.76-.12 1.28-.014.2.032.333.14.4.12.053.306.08.56.08.36 0 .786-.1 1.28-.3a7.613 7.613 0 0 0 1.32-.7c.306-.2.666-.187 1.08.04.4.2.64.433.72.7.093.267.046.527-.14.78-.174.24-.474.42-.9.54-.414.107-.86.167-1.34.18-.467 0-.914-.033-1.34-.1a5.35 5.35 0 0 1-1.06-.26c-.227-.08-.34-.033-.34.14 0 1.4.072 2.553.22 3.46.146.893.28 1.633.4 2.22.84.187 1.62.407 2.34.66.72.253 1.306.513 1.76.78.332.187.586.473.76.86.172.373.18.753.02 1.14a.899.899 0 0 1-.56.56c-.254.08-.508.033-.76-.14a18.693 18.693 0 0 0-1.56-1.02 17.042 17.042 0 0 0-1.84-.96c-.12.96-.534 1.673-1.24 2.14-.708.453-1.654.653-2.84.6Zm-.12-1.8c.586-.013 1.066-.167 1.44-.46.386-.293.606-.713.66-1.26a9.155 9.155 0 0 0-2.34-.36c-.68-.013-1.167.08-1.46.28-.294.187-.44.447-.44.78 0 .307.18.56.54.76.36.187.892.273 1.6.26ZM62.176 20.535c-.667 0-1.267-.107-1.8-.32-.52-.213-.927-.52-1.22-.92-.294-.4-.434-.86-.42-1.38.027-.533.2-.98.52-1.34.32-.36.74-.633 1.26-.82a5.232 5.232 0 0 1 1.74-.28 11.52 11.52 0 0 1 1.34.08 27.479 27.479 0 0 0-.08-1.5c-.027-.493-.04-.98-.04-1.46 0-.947.227-1.627.68-2.04.453-.427 1.013-.707 1.68-.84.373-.067.606-.18.7-.34.093-.16.126-.36.1-.6-.027-.293-.153-.567-.38-.82a2.515 2.515 0 0 0-.84-.64.303.303 0 0 1-.02-.24.24.24 0 0 1 .16-.16c.44.027.88.113 1.32.26.453.133.86.32 1.22.56.36.227.64.493.84.8.2.293.273.613.22.96-.053.453-.207.78-.46.98-.254.187-.553.28-.9.28a2.745 2.745 0 0 1-1-.24c-.294-.16-.607-.213-.94-.16-.334.04-.613.207-.84.5-.227.28-.34.713-.34 1.3 0 .6.06 1.22.18 1.86.133.627.26 1.233.38 1.82.64.16 1.213.353 1.72.58.507.213.913.42 1.22.62.306.187.54.453.7.8.16.333.173.673.04 1.02-.133.347-.34.573-.62.68-.267.093-.54.02-.82-.22-.293-.227-.607-.467-.94-.72a7.62 7.62 0 0 0-1.12-.7c-.067.84-.387 1.48-.96 1.92-.56.453-1.32.693-2.28.72Zm-7.36-3.76a1.609 1.609 0 0 1-.32-.64 2.098 2.098 0 0 1-.06-.76c.04-.253.127-.46.26-.62.413-.48.82-1.047 1.22-1.7.413-.667.793-1.387 1.14-2.16.36-.773.673-1.56.94-2.36l-.52.04-.54.04c-.773.027-1.34-.187-1.7-.64-.347-.453-.52-1-.52-1.64a.316.316 0 0 1 .2-.12c.08-.027.147-.013.2.04.093.32.3.527.62.62.32.08.687.113 1.1.1.56 0 1.107-.06 1.64-.18.147-.627.246-1.22.3-1.78.026-.267.02-.473-.02-.62a.499.499 0 0 0-.22-.34.736.736 0 0 0-.22-.06 2.369 2.369 0 0 0-.26-.06.268.268 0 0 1-.06-.22.358.358 0 0 1 .1-.2 3.994 3.994 0 0 1 1.26 0c.413.067.746.213 1 .44.24.2.38.42.42.66.04.24-.034.467-.22.68-.147.173-.26.333-.34.48a4.346 4.346 0 0 0-.2.56c.293-.12.56-.253.8-.4a1.12 1.12 0 0 1 .56-.16c.2-.013.447.073.74.26.333.187.493.44.48.76-.013.32-.187.56-.52.72-.334.147-.714.287-1.14.42-.427.133-.894.253-1.4.36-.214.76-.453 1.547-.72 2.36-.267.8-.547 1.58-.84 2.34a26.22 26.22 0 0 1-.9 2.08c-.294.627-.574 1.133-.84 1.52-.187.28-.427.433-.72.46a.858.858 0 0 1-.7-.28Zm7.26 2c.453-.013.806-.167 1.06-.46.267-.293.426-.667.48-1.12a4.992 4.992 0 0 0-.8-.14 5.662 5.662 0 0 0-.84-.06c-.6 0-1.06.073-1.38.22-.32.147-.48.353-.48.62-.014.333.147.58.48.74.347.147.84.213 1.48.2ZM79.673 19.96c-1.04-.04-1.887-.293-2.54-.76-.64-.467-.96-1.127-.96-1.98 0-.787.34-1.387 1.02-1.8.68-.413 1.533-.607 2.56-.58.306 0 .613.013.92.04.32.027.633.06.94.1a59.184 59.184 0 0 0-.12-1.76 89.353 89.353 0 0 1-.1-2.02 51.076 51.076 0 0 1-.04-1.96V7.68c.013-.387.026-.727.04-1.02.013-.667-.02-1.133-.1-1.4-.08-.28-.227-.447-.44-.5a.71.71 0 0 0-.26-.04c-.094 0-.18.007-.26.02-.16-.12-.18-.253-.06-.4.386-.24.86-.34 1.42-.3.56.027 1.053.2 1.48.52.6.347.7.82.3 1.42a2.366 2.366 0 0 0-.36.9c-.054.333-.094.76-.12 1.28-.014.2.033.333.14.4.12.053.306.08.56.08.36 0 .786-.1 1.28-.3a7.606 7.606 0 0 0 1.32-.7c.306-.2.666-.187 1.08.04.4.2.64.433.72.7.093.267.046.527-.14.78-.174.24-.474.42-.9.54-.414.107-.86.167-1.34.18-.467 0-.914-.033-1.34-.1a5.35 5.35 0 0 1-1.06-.26c-.227-.08-.34-.033-.34.14 0 1.4.073 2.553.22 3.46.146.893.28 1.633.4 2.22.84.187 1.62.407 2.34.66.72.253 1.306.513 1.76.78.333.187.586.473.76.86.173.373.18.753.02 1.14a.899.899 0 0 1-.56.56c-.254.08-.507.033-.76-.14a18.66 18.66 0 0 0-1.56-1.02 17.032 17.032 0 0 0-1.84-.96c-.12.96-.534 1.673-1.24 2.14-.707.453-1.654.653-2.84.6Zm-.12-1.8c.586-.013 1.066-.167 1.44-.46.386-.293.606-.713.66-1.26a9.155 9.155 0 0 0-2.34-.36c-.68-.013-1.167.08-1.46.28-.294.187-.44.447-.44.78 0 .307.18.56.54.76.36.187.893.273 1.6.26ZM103.339 20.535c-.666 0-1.266-.107-1.8-.32-.52-.213-.926-.52-1.22-.92-.293-.4-.433-.86-.42-1.38.027-.533.2-.98.52-1.34.32-.36.74-.633 1.26-.82a5.238 5.238 0 0 1 1.74-.28 11.495 11.495 0 0 1 1.34.08 27.181 27.181 0 0 0-.08-1.5c-.026-.493-.04-.98-.04-1.46 0-.947.227-1.627.68-2.04.454-.427 1.014-.707 1.68-.84.374-.067.607-.18.7-.34.094-.16.127-.36.1-.6-.026-.293-.153-.567-.38-.82a2.5 2.5 0 0 0-.84-.64.306.306 0 0 1-.02-.24.241.241 0 0 1 .16-.16c.44.027.88.113 1.32.26.454.133.86.32 1.22.56.36.227.64.493.84.8.2.293.274.613.22.96-.053.453-.206.78-.46.98-.253.187-.553.28-.9.28a2.75 2.75 0 0 1-1-.24c-.293-.16-.606-.213-.94-.16-.333.04-.613.207-.84.5-.226.28-.34.713-.34 1.3 0 .6.06 1.22.18 1.86.134.627.26 1.233.38 1.82.64.16 1.214.353 1.72.58.507.213.914.42 1.22.62.307.187.54.453.7.8.16.333.174.673.04 1.02-.133.347-.34.573-.62.68-.266.093-.54.02-.82-.22-.293-.227-.606-.467-.94-.72a7.567 7.567 0 0 0-1.12-.7c-.066.84-.386 1.48-.96 1.92-.56.453-1.32.693-2.28.72Zm-7.36-3.76a1.607 1.607 0 0 1-.32-.64 2.098 2.098 0 0 1-.06-.76c.04-.253.127-.46.26-.62.414-.48.82-1.047 1.22-1.7.414-.667.794-1.387 1.14-2.16.36-.773.674-1.56.94-2.36a5139.777 5139.777 0 0 0-1.06.08c-.773.027-1.34-.187-1.7-.64-.346-.453-.52-1-.52-1.64a.316.316 0 0 1 .2-.12c.08-.027.147-.013.2.04.094.32.3.527.62.62.32.08.687.113 1.1.1.56 0 1.107-.06 1.64-.18.147-.627.247-1.22.3-1.78.027-.267.02-.473-.02-.62a.499.499 0 0 0-.22-.34.736.736 0 0 0-.22-.06 2.374 2.374 0 0 0-.26-.06.268.268 0 0 1-.06-.22.358.358 0 0 1 .1-.2 3.992 3.992 0 0 1 1.26 0c.414.067.747.213 1 .44.24.2.38.42.42.66.04.24-.033.467-.22.68a2.99 2.99 0 0 0-.34.48 4.502 4.502 0 0 0-.2.56c.294-.12.56-.253.8-.4.187-.107.374-.16.56-.16.2-.013.447.073.74.26.334.187.494.44.48.76-.013.32-.186.56-.52.72-.333.147-.713.287-1.14.42-.426.133-.893.253-1.4.36a56.67 56.67 0 0 1-.72 2.36c-.266.8-.546 1.58-.84 2.34-.293.76-.593 1.453-.9 2.08-.293.627-.573 1.133-.84 1.52-.186.28-.426.433-.72.46a.858.858 0 0 1-.7-.28Zm7.26 2c.454-.013.807-.167 1.06-.46.267-.293.427-.667.48-1.12a4.986 4.986 0 0 0-.8-.14 5.648 5.648 0 0 0-.84-.06c-.6 0-1.06.073-1.38.22-.32.147-.48.353-.48.62-.013.333.147.58.48.74.347.147.84.213 1.48.2ZM119.237 16.81c-.306 0-.613-.134-.92-.4a3.45 3.45 0 0 1-.72-.92c-.186-.36-.273-.68-.26-.96.094-.187.227-.227.4-.12.214.28.54.426.98.44.44.013.954-.007 1.54-.06h.02c.467-.04 1.034-.087 1.7-.14a48.17 48.17 0 0 1 2.06-.16c.707-.054 1.334-.08 1.88-.08.187 0 .327-.027.42-.08.094-.054.16-.16.2-.32.04-.2.087-.48.14-.84a60.633 60.633 0 0 0 .3-2.46c.04-.4.074-.74.1-1.02.027-.214 0-.36-.08-.44-.066-.094-.213-.14-.44-.14-1.36 0-2.56.073-3.6.22-1.04.133-1.813.293-2.32.48-.36.133-.66.233-.9.3-.226.066-.426.1-.6.1a1.37 1.37 0 0 1-.58-.14 1.976 1.976 0 0 1-.58-.5 3.83 3.83 0 0 1-.52-.86c-.12-.307-.14-.58-.06-.82.147-.147.28-.16.4-.04.134.24.407.386.82.44.414.04.907.033 1.48-.02.467-.04.987-.074 1.56-.1a80.97 80.97 0 0 1 1.74-.1 159.7 159.7 0 0 0 1.6-.08c.48-.027.854-.047 1.12-.06.347-.027.634-.08.86-.16.24-.094.44-.214.6-.36.267-.254.547-.287.84-.1.134.066.32.186.56.36.254.173.5.353.74.54.254.186.454.346.6.48.174.16.247.34.22.54-.013.186-.133.353-.36.5-.226.16-.46.486-.7.98-.106.226-.246.54-.42.94-.173.386-.34.773-.5 1.16-.146.373-.246.66-.3.86-.04.173-.033.3.02.38.067.066.187.1.36.1.214 0 .387.033.52.1.147.066.28.166.4.3.227.24.334.486.32.74a.75.75 0 0 1-.24.58c-.16.146-.36.2-.6.16a6.806 6.806 0 0 0-.66-.08c-.306-.04-.666-.067-1.08-.08-.4-.027-.846-.04-1.34-.04a20.688 20.688 0 0 0-1.56.02c-.68.013-1.36.08-2.04.2-.68.106-1.226.24-1.64.4-.293.093-.56.18-.8.26-.226.066-.453.1-.68.1ZM140.453 13.14c-.014 0-.027.006-.04.02-.414.08-.734.126-.96.14-.214.013-.44-.067-.68-.24a3.488 3.488 0 0 1-.7-.76 3.468 3.468 0 0 1-.46-.88c-.094-.294-.094-.5 0-.62.133-.107.253-.107.36 0 .133.146.3.253.5.32.213.066.526.113.94.14.4.026.953.046 1.66.06.706.013 1.58.02 2.62.02 1.253-.014 2.4-.034 3.44-.06 1.04-.027 1.9-.067 2.58-.12.893-.08 1.6-.207 2.12-.38.32-.107.66-.107 1.02 0 .293.08.58.193.86.34.28.133.5.253.66.36.24.16.373.353.4.58.026.226-.054.426-.24.6-.187.16-.487.226-.9.2a32.04 32.04 0 0 0-2.16-.1c-.814-.014-1.554-.02-2.22-.02-.28 0-.714.006-1.3.02-.587 0-1.247.006-1.98.02-.72.013-1.447.04-2.18.08-.734.026-1.4.066-2 .12-.587.04-1.034.093-1.34.16ZM163.813 20.304c-.213 0-.44-.107-.68-.32a2.44 2.44 0 0 1-.58-.78c-.133-.32-.18-.613-.14-.88.04-.253.08-.687.12-1.3.04-.627.073-1.373.1-2.24.04-.88.067-1.827.08-2.84.027-1.027.04-2.06.04-3.1v-.98c0-.653-.007-1.167-.02-1.54 0-.387-.013-.7-.04-.94-.013-.387-.073-.66-.18-.82-.093-.173-.307-.287-.64-.34-.133-.16-.127-.3.02-.42.427-.12.9-.14 1.42-.06.52.08 1.047.307 1.58.68.16.12.26.273.3.46.04.173-.007.34-.14.5-.107.133-.193.36-.26.68-.067.307-.113.76-.14 1.36a75.233 75.233 0 0 0-.06 2.34c.733.053 1.473.167 2.22.34.76.16 1.44.4 2.04.72.6.32 1.04.747 1.32 1.28.267.507.333.96.2 1.36-.12.4-.327.673-.62.82a.992.992 0 0 1-.64.1c-.213-.04-.387-.167-.52-.38-.56-.96-1.16-1.727-1.8-2.3a5.68 5.68 0 0 0-2.2-1.26v.16c0 .893.007 1.82.02 2.78.027.947.053 1.84.08 2.68.04.827.067 1.52.08 2.08.027.56.04.893.04 1 0 .307-.1.573-.3.8-.2.24-.433.36-.7.36Zm7-12a.61.61 0 0 1-.46.02.887.887 0 0 1-.38-.36c-.24-.467-.54-.92-.9-1.36-.36-.44-.76-.807-1.2-1.1-.04-.173.02-.287.18-.34.387.04.787.147 1.2.32.413.16.787.36 1.12.6.347.24.587.5.72.78.16.333.2.633.12.9-.067.253-.2.433-.4.54Zm1.96-2.34a.716.716 0 0 1-.46.16c-.173-.013-.333-.1-.48-.26a6.75 6.75 0 0 0-1.2-1.02 5.242 5.242 0 0 0-1.4-.68c-.093-.173-.067-.307.08-.4.36-.04.747-.033 1.16.02.427.04.827.12 1.2.24.387.12.693.28.92.48.267.24.4.513.4.82.013.293-.06.507-.22.64Z"/>
</svg>